HIERARCHY
ROOT Hips
{
	OFFSET -3.958830 18.904000 13.208200
	CHANNELS 6 Xposition Yposition Zposition Zrotation Yrotation Xrotation 
	JOINT LHipJoint
	{
		OFFSET 0.000000 0.000000 0.000000
		CHANNELS 3 Zrotation Yrotation Xrotation
		JOINT LeftUpLeg
		{
			OFFSET 1.800000 -1.400000 0.085000
			CHANNELS 3 Zrotation Yrotation Xrotation
			JOINT LeftLeg
			{
				OFFSET 2.215000 -6.000000 0.000000
				CHANNELS 3 Zrotation Yrotation Xrotation
				JOINT LeftFoot
				{
					OFFSET 2.500000 -6.900000 0.000000
					CHANNELS 3 Zrotation Yrotation Xrotation
					JOINT LeftToeBase
					{
						OFFSET 0.200000 -0.500000 1.950000
						CHANNELS 3 Zrotation Yrotation Xrotation
						End Site
						{
							OFFSET 0.000000 0.000000 0.000000
						}
					}
				}
			}
		}
	}
	JOINT RHipJoint
	{
		OFFSET 0.000000 0.000000 0.000000
		CHANNELS 3 Zrotation Yrotation Xrotation
		JOINT RightUpLeg
		{
			OFFSET -1.800000 -1.400000 0.085000
			CHANNELS 3 Zrotation Yrotation Xrotation
			JOINT RightLeg
			{
				OFFSET -2.215000 -6.000000 0.000000
				CHANNELS 3 Zrotation Yrotation Xrotation
				JOINT RightFoot
				{
					OFFSET -2.500000 -6.900000 0.000000
					CHANNELS 3 Zrotation Yrotation Xrotation
					JOINT RightToeBase
					{
						OFFSET -0.200000 -0.500000 1.950000
						CHANNELS 3 Zrotation Yrotation Xrotation
						End Site
						{
							OFFSET 0.000000 0.000000 0.000000
						}
					}
				}
			}
		}
	}
	JOINT LowerBack
	{
		OFFSET 0.000000 0.000000 0.000000
		CHANNELS 3 Zrotation Yrotation Xrotation
		JOINT Spine
		{
			OFFSET -0.087000 1.940000 -0.288900
			CHANNELS 3 Zrotation Yrotation Xrotation
			JOINT Spine1
			{
				OFFSET 0.000000 1.950000 0.060000
				CHANNELS 3 Zrotation Yrotation Xrotation
				JOINT Neck
				{
					OFFSET 0.000000 0.000000 0.000000
					CHANNELS 3 Zrotation Yrotation Xrotation
					JOINT Neck1
					{
						OFFSET 0.000000 1.600000 0.340000
						CHANNELS 3 Zrotation Yrotation Xrotation
						JOINT Head
						{
							OFFSET 0.000000 1.667000 -0.240000
							CHANNELS 3 Zrotation Yrotation Xrotation
							End Site
							{
								OFFSET 0.000000 0.000000 0.000000
							}
						}
					}
				}
				JOINT LeftShoulder
				{
					OFFSET 0.000000 0.000000 0.000000
					CHANNELS 3 Zrotation Yrotation Xrotation
					JOINT LeftArm
					{
						OFFSET 2.700000 1.550000 -0.730000
						CHANNELS 3 Zrotation Yrotation Xrotation
						JOINT LeftForeArm
						{
							OFFSET 5.450000 0.000000 0.000000
							CHANNELS 3 Zrotation Yrotation Xrotation
							JOINT LeftHand
							{
								OFFSET 3.450000 0.000000 0.000000
								CHANNELS 3 Zrotation Yrotation Xrotation
								JOINT LeftHandIndex1
								{
									OFFSET 0.750000 0.000000 0.000000
									CHANNELS 3 Zrotation Yrotation Xrotation
									End Site
									{
										OFFSET 0.000000 0.000000 0.000000
									}
								}
							}
						}
					}
				}
				JOINT RightShoulder
				{
					OFFSET 0.000000 0.000000 0.000000
					CHANNELS 3 Zrotation Yrotation Xrotation
					JOINT RightArm
					{
						OFFSET -2.700000 1.550000 -0.730000
						CHANNELS 3 Zrotation Yrotation Xrotation
						JOINT RightForeArm
						{
							OFFSET -5.450000 0.000000 0.000000
							CHANNELS 3 Zrotation Yrotation Xrotation
							JOINT RightHand
							{
								OFFSET -3.450000 0.000000 0.000000
								CHANNELS 3 Zrotation Yrotation Xrotation
								JOINT RightHandIndex1
								{
									OFFSET -0.750000 0.000000 0.000000
									CHANNELS 3 Zrotation Yrotation Xrotation
									End Site
									{
										OFFSET 0.000000 0.000000 0.000000
									}
								}
							}
						}
					}
				}
			}
		}
	}
}
MOTION
Frames: 6
Frame Time: 0.016667
-0.105880 16.831160 -0.517920 -3.945694 -8.989703 3.268772 -14.993775 13.288793 2.773064 11.547008 -1.378820 -20.224947 -7.930878 9.580961 25.591861 -0.423218 6.253154 2.554105 -0.107040 -0.484340 0.008500 18.400205 -11.005303 2.539981 -8.233665 1.144291 -11.808413 10.355010 -6.320931 13.702146 0.139094 -4.221673 3.144477 0.021560 0.822300 0.178740 -3.914752 -1.479624 -6.772097 10.075329 2.708510 5.198368 -2.782588 2.836085 6.054527 -0.237613 -4.731661 -6.953898 -9.057195 14.428137 27.449542 -5.369000 16.724440 6.755320 -2.814141 5.048799 1.704415 -28.487814 -10.703867 0.181445 57.315626 -68.281196 -35.073693 -4.076417 2.335333 0.074350 0.727580 -0.598290 0.100680 3.108619 -1.610271 2.090657 40.523427 8.729265 -7.210101 -36.788743 61.034529 -17.162226 1.346306 -1.446738 -0.545640 0.256770 0.266110 -0.268470 
-0.103800 16.832040 -0.517870 -3.900754 -8.966818 3.392225 -14.996723 13.287904 2.756922 11.365311 -1.392072 -20.158336 -7.827738 9.457136 25.296577 -0.434914 6.200317 2.583447 -0.116700 -0.493930 0.001940 18.398674 -11.003434 2.544030 -8.300536 1.152525 -11.899099 10.407289 -6.304569 13.561241 0.150235 -4.231847 3.141939 0.022390 0.840690 0.185550 -3.908961 -1.477257 -6.751767 9.876026 2.798686 4.950764 -2.445924 2.822431 6.142523 -0.450256 -4.546720 -6.908739 -8.695448 14.264651 27.217976 -5.490580 16.756730 7.053050 -2.151808 4.949981 1.635177 -27.303024 -10.865569 0.417925 51.536542 -69.080862 -31.789965 -4.134259 2.530491 0.056690 0.749340 -0.613010 0.101080 2.906774 -1.667462 2.092883 40.505327 8.711063 -7.097171 -36.681418 60.915061 -17.082081 1.341466 -1.464186 -0.549680 0.255000 0.270820 -0.266510 
-0.101710 16.832940 -0.518020 -3.844388 -8.941261 3.515213 -15.000160 13.287399 2.740582 11.166020 -1.407220 -20.076614 -7.726328 9.327243 24.979173 -0.447431 6.145590 2.614166 -0.126330 -0.504020 -0.005010 18.396564 -11.001144 2.548273 -8.377047 1.160737 -11.991168 10.465650 -6.289077 13.415640 0.161238 -4.242984 3.138923 0.023450 0.860010 0.193090 -3.901617 -1.476310 -6.731347 9.652220 2.891296 4.697555 -2.094308 2.813429 6.239832 -0.664292 -4.364954 -6.865336 -8.343600 14.102764 26.994203 -5.602640 16.771530 7.352510 -1.501355 4.866583 1.586069 -26.164144 -11.124477 0.809780 45.407048 -69.620921 -28.188497 -4.196702 2.727323 0.039060 0.771620 -0.627990 0.102080 2.720293 -1.735005 2.080480 40.456550 8.699619 -6.979252 -36.512638 60.793828 -16.968264 1.336437 -1.482791 -0.554040 0.253630 0.275920 -0.264440 
-0.099310 16.834180 -0.518430 -3.793390 -8.908716 3.624269 -15.003045 13.289026 2.723253 10.960642 -1.421757 -19.969691 -7.606916 9.185518 24.644385 -0.461093 6.086135 2.646371 -0.135680 -0.514140 -0.011410 18.394572 -11.000451 2.552647 -8.443912 1.166137 -12.072276 10.511806 -6.274491 13.285807 0.171630 -4.254087 3.135543 0.024220 0.878420 0.200420 -3.895071 -1.476010 -6.711615 9.440743 2.974361 4.456976 -1.750441 2.800635 6.349620 -0.866717 -4.187680 -6.832340 -8.006282 13.949719 26.810085 -5.705300 16.782320 7.635390 -0.896165 4.765149 1.555385 -25.064407 -11.446001 1.293026 39.195266 -69.904479 -24.409264 -4.255698 2.906112 0.022790 0.792790 -0.642320 0.102490 2.554043 -1.783292 2.067025 40.388043 8.696219 -6.869882 -36.340746 60.652714 -16.849304 1.332018 -1.500362 -0.558400 0.252150 0.281120 -0.262720 
-0.097130 16.835780 -0.519010 -3.740485 -8.885104 3.721180 -15.006320 13.292222 2.706162 10.756813 -1.432615 -19.840268 -7.491491 9.043035 24.292487 -0.475332 6.025408 2.678133 -0.145780 -0.524740 -0.018430 18.391966 -11.000386 2.556190 -8.503534 1.171750 -12.154313 10.542252 -6.261195 13.183549 0.182119 -4.264677 3.131895 0.024480 0.895700 0.207190 -3.886791 -1.477460 -6.692245 9.214866 3.054338 4.222897 -1.408030 2.789845 6.478568 -1.051370 -4.013308 -6.810354 -7.678770 13.803745 26.659101 -5.813470 16.797970 7.899550 -0.345672 4.632229 1.536124 -24.018870 -11.807876 1.808066 33.107231 -69.946130 -20.584525 -4.308621 3.058103 0.007430 0.813000 -0.656350 0.101760 2.407074 -1.796132 2.061506 40.309089 8.702315 -6.774929 -36.168839 60.486043 -16.730763 1.328062 -1.516399 -0.562820 0.250380 0.287350 -0.261440 
-0.094830 16.837700 -0.519700 -3.685647 -8.879663 3.809308 -15.009320 13.296440 2.688262 10.543619 -1.442163 -19.689775 -7.363430 8.892725 23.927215 -0.489924 5.961362 2.710532 -0.154550 -0.534230 -0.024290 18.389421 -11.001150 2.559801 -8.568506 1.176360 -12.232492 10.565974 -6.246020 13.079266 0.192314 -4.274176 3.128574 0.025210 0.911670 0.214110 -3.878779 -1.478694 -6.672478 8.989515 3.133954 3.992366 -1.080490 2.784019 6.612207 -1.223249 -3.846647 -6.787701 -7.369181 13.669267 26.536439 -5.902260 16.802250 8.140290 0.162026 4.496315 1.514657 -23.081523 -12.240391 2.343097 27.178948 -69.757043 -16.761816 -4.354741 3.184744 -0.007170 0.832160 -0.669410 0.100900 2.274142 -1.799660 2.055266 40.230015 8.728537 -6.676517 -35.950007 60.298631 -16.585738 1.325104 -1.532561 -0.566590 0.248310 0.292960 -0.260350 
